<svg xmlns="http://www.w3.org/2000/svg" version="1.1" xmlns:xlink="http://www.w3.org/1999/xlink" width="512" height="512" x="0" y="0" viewBox="0 0 682 682.667" style="enable-background:new 0 0 512 512" xml:space="preserve" class=""><g><path d="M254.043 0C110.043 0-4 119.828-4 264.172-4 414.98 196.172 640 254.043 640c50.727 0 250.894-225.02 250.894-375.828C504.938 119.828 390.895 0 254.043 0zm.684 401.02c-89.536 0-158.645-67.403-158.645-146.04 0-33.363 10.215-63.66 27.578-88.511 5.445 27.914 30.3 49.02 60.598 49.02 34.043 0 61.617-26.895 61.617-60.255 0-21.445-11.574-40.172-28.938-50.722 11.915-2.723 24.512-4.086 37.79-4.086 80.68 0 149.785 67.402 149.785 154.55 0 78.641-69.106 146.044-149.785 146.044zm0 0" fill="#FF5C00" opacity="1" data-original="#000000" class=""></path></g></svg>